<svg height="472pt" viewBox="-4 0 472 472.00192" width="472pt" xmlns="http://www.w3.org/2000/svg"><path d="m40 48c-20.535156.257812-37.667969 15.773438-39.9492188 36.1875-.9375002 20.175781 11.7734378 36.75 31.9492188 35.8125h80v-80c.9375-20.175781-15.636719-32.886719-35.816406-31.949219-20.410156 2.285157-35.921875 19.414063-36.183594 39.949219zm0 0" fill="#f98c96"/><path d="m136 144c-14.839844.691406-31.3125 9.160156-32 24-.78125 6.574219 1.496094 13.144531 6.175781 17.828125 4.683594 4.679687 11.25 6.957031 17.824219 6.171875h56v-56c.785156-6.570312-1.492188-13.140625-6.175781-17.824219-4.679688-4.679687-11.25-6.957031-17.824219-6.175781-14.808594.722656-23.277344 17.195312-24 32zm0 0" fill="#f98c96"/><path d="m120 352 224-224 120 344zm0 0" fill="#dd3e46"/><path d="m368 304c12.199219-.003906 23.933594-4.675781 32.800781-13.054688l-28.800781-82.742187c-1.3125-.105469-2.628906-.203125-4-.203125-26.507812 0-48 21.492188-48 48 0 26.511719 21.492188 48 48 48zm0 0" fill="#f98c96"/><path d="m232 320c23.78125-.007812 43.972656-17.433594 47.460938-40.957031 3.488281-23.523438-10.777344-46.058594-33.53125-52.96875l-59.855469 59.855469c6.132812 20.234374 24.785156 34.070312 45.925781 34.070312zm0 0" fill="#f98c96"/><path d="m419.777344 345.234375c-16.765625 12.242187-23.765625 33.875-17.34375 53.617187 6.421875 19.738282 24.808594 33.117188 45.566406 33.148438.679688 0 1.335938-.070312 2.007812-.101562zm0 0" fill="#f98c96"/><path d="m352 392c.125-18.144531-10-34.8125-26.160156-43.066406-16.160156-8.257813-35.597656-6.695313-50.230469 4.039062-14.632813 10.738282-21.960937 28.804688-18.9375 46.703125l79.609375 27.773438c10.011719-9.0625 15.722656-21.941407 15.71875-35.449219zm0 0" fill="#f98c96"/><path d="m24 296c-4.417969 0-8-3.578125-8-8 .050781-44.160156 35.839844-79.949219 80-80 4.417969 0 8 3.582031 8 8 0 4.421875-3.582031 8-8 8-35.328125.042969-63.957031 28.671875-64 64 0 4.421875-3.582031 8-8 8zm0 0" fill="#ffd782"/><path d="m80 200c-38.628906 0-53.648438-18.054688-70.65625-43.558594-2.449219-3.675781-1.457031-8.644531 2.21875-11.09375 3.675781-2.453125 8.644531-1.460937 11.09375 2.214844 15.511719 23.269531 25.832031 36.4375 57.34375 36.4375 4.417969 0 8 3.582031 8 8 0 4.421875-3.582031 8-8 8zm0 0" fill="#ffd782"/><path d="m104 312c-2.808594.003906-5.414062-1.46875-6.863281-3.878906-8.246094-11.707032-10.757813-26.515625-6.832031-40.289063 4.914062-12.285156 14.535156-22.101562 26.71875-27.261719 4.101562-1.648437 8.761718.339844 10.410156 4.441407 1.648437 4.097656-.339844 8.757812-4.441406 10.40625-7.902344 3.398437-14.203126 9.695312-17.597657 17.601562-2.234375 9.304688-.253906 19.125 5.414063 26.839844 1.492187 2.464844 1.546875 5.539063.136718 8.054687-1.410156 2.515626-4.0625 4.074219-6.945312 4.085938zm0 0" fill="#ffd782"/><path d="m72 316c0 6.628906-5.371094 12-12 12-6.625 0-12-5.371094-12-12 0-6.625 5.375-12 12-12 6.628906 0 12 5.375 12 12zm0 0" fill="#e97424"/><path d="m24 212c0 6.628906-5.371094 12-12 12-6.625 0-12-5.371094-12-12 0-6.625 5.375-12 12-12 6.628906 0 12 5.375 12 12zm0 0" fill="#e97424"/><path d="m216 112c-.636719.003906-1.273438-.074219-1.894531-.222656-4.296875-1.042969-6.933594-5.367188-5.886719-9.664063 11.144531-45.785156 48.847656-71.785156 89.664062-61.886719 4.292969 1.042969 6.929688 5.367188 5.886719 9.664063-1.042969 4.292969-5.371093 6.929687-9.664062 5.886719-36.070313-8.734375-62.65625 18.578125-70.335938 50.113281-.871093 3.582031-4.078125 6.109375-7.769531 6.109375zm0 0" fill="#ffd782"/><path d="m192 88c-.636719.003906-1.273438-.074219-1.894531-.222656-4.296875-1.042969-6.933594-5.367188-5.886719-9.664063 7.199219-29.597656-4.265625-57.015625-26.113281-62.335937-4.292969-1.042969-6.929688-5.367188-5.886719-9.664063 1.042969-4.292969 5.367188-6.929687 9.664062-5.886719 30.574219 7.4375 47.199219 43.3125 37.886719 81.664063-.871093 3.582031-4.078125 6.109375-7.769531 6.109375zm0 0" fill="#ffd782"/><path d="m240 144c-2.976562 0-5.707031-1.65625-7.082031-4.296875-1.378907-2.640625-1.175781-5.824219.523437-8.269531 7.167969-9.75 17.976563-16.183594 29.96875-17.832032 14.605469-.46875 28.640625 5.671876 38.207032 16.71875 2.859374 3.140626 2.765624 7.96875-.210938 10.996094s-7.800781 3.203125-10.988281.398438c-6.292969-7.621094-15.628907-12.078125-25.511719-12.183594-7.300781 1.183594-13.859375 5.144531-18.304688 11.054688-1.503906 2.152343-3.972656 3.429687-6.601562 3.414062zm0 0" fill="#ffd782"/><path d="m328 92c0 6.628906-5.371094 12-12 12-6.625 0-12-5.371094-12-12 0-6.625 5.375-12 12-12 6.628906 0 12 5.375 12 12zm0 0" fill="#e97424"/><path d="m240 20c0 6.628906-5.371094 12-12 12-6.625 0-12-5.371094-12-12 0-6.625 5.375-12 12-12 6.628906 0 12 5.375 12 12zm0 0" fill="#e97424"/><g fill="#f98c96"><path d="m208 224c-2.125.023438-4.175781-.8125-5.679688-2.316406-1.503906-1.507813-2.339843-3.554688-2.320312-5.683594.027344-2.117188.855469-4.148438 2.320312-5.679688 1.890626-1.871093 4.589844-2.679687 7.199219-2.160156.535157.078125 1.050781.238282 1.53125.480469.488281.164063.949219.40625 1.359375.722656.457032.273438.886719.597657 1.277344.957031 1.460938 1.535157 2.285156 3.566407 2.3125 5.679688.023438 2.128906-.8125 4.175781-2.316406 5.683594-1.507813 1.503906-3.554688 2.339844-5.683594 2.316406zm0 0"/><path d="m352 56c-1.042969-.011719-2.078125-.226562-3.039062-.636719-.96875-.40625-1.863282-.976562-2.640626-1.679687-1.503906-1.507813-2.339843-3.554688-2.320312-5.683594 0-4.417969 3.582031-8 8-8s8 3.582031 8 8c.023438 2.128906-.8125 4.175781-2.316406 5.683594-1.507813 1.503906-3.554688 2.339844-5.683594 2.316406zm0 0"/><path d="m40 416c-2.125.023438-4.171875-.8125-5.679688-2.316406-.703124-.78125-1.269531-1.671875-1.679687-2.640625-.851563-1.9375-.851563-4.144531 0-6.082031.40625-.96875.976563-1.859376 1.679687-2.640626 3.210938-2.957031 8.152344-2.957031 11.359376 0 .707031.78125 1.277343 1.671876 1.683593 2.640626.851563 1.9375.851563 4.144531 0 6.082031-.410156.96875-.976562 1.859375-1.683593 2.640625-.777344.703125-1.671876 1.269531-2.636719 1.679687-.964844.410157-1.996094.625-3.042969.636719zm0 0"/><path d="m16 360c-2.675781.027344-5.183594-1.296875-6.667969-3.523438-1.484375-2.226562-1.746093-5.054687-.691406-7.515624 1.359375-3.578126 5.132813-5.621094 8.871094-4.800782.535156.078125 1.050781.238282 1.53125.480469.507812.179687.992187.417969 1.4375.722656.417969.296875.820312.617188 1.199219.957031.707031.78125 1.277343 1.671876 1.683593 2.640626 1.050781 2.460937.792969 5.289062-.691406 7.515624-1.484375 2.226563-3.992187 3.550782-6.671875 3.523438zm0 0"/><path d="m400 48c-2.125.023438-4.175781-.8125-5.679688-2.316406-1.503906-1.507813-2.339843-3.554688-2.320312-5.683594-.027344-1.046875.191406-2.089844.640625-3.039062.40625-.96875.976563-1.859376 1.679687-2.640626.765626-.722656 1.660157-1.292968 2.640626-1.679687 1.945312-.808594 4.132812-.808594 6.082031 0 .976562.390625 1.871093.960937 2.636719 1.679687.707031.78125 1.277343 1.671876 1.683593 2.640626.851563 1.9375.851563 4.144531 0 6.082031-.410156.96875-.976562 1.859375-1.683593 2.640625-.777344.703125-1.671876 1.269531-2.636719 1.679687-.964844.410157-1.996094.625-3.042969.636719zm0 0"/></g></svg>