<?xml version="1.0"?>
<svg xmlns="http://www.w3.org/2000/svg" height="512px" viewBox="0 -3 512 512" width="512px" class=""><g><path d="m467.050781 0h-422.101562c-24.785157 0-44.949219 20.164062-44.949219 44.949219v230.21875c0 24.785156 20.164062 44.949219 44.949219 44.949219h166.136719v131.265624c0 3.0625.925781 6.050782 2.65625 8.574219l26.394531 38.496094c2.828125 4.121094 7.503906 6.585937 12.503906 6.585937 4.996094 0 9.675781-2.464843 12.503906-6.585937l26.394531-38.496094c1.730469-2.523437 2.65625-5.511719 2.65625-8.574219v-131.265624h172.855469c24.785157 0 44.949219-20.164063 44.949219-44.949219v-230.21875c0-24.785157-20.164062-44.949219-44.949219-44.949219zm-203.171875 446.6875-11.238281 16.386719-11.238281-16.386719v-126.570312h22.476562zm217.804688-171.519531c0 8.066406-6.566406 14.632812-14.632813 14.632812h-422.101562c-8.066407 0-14.632813-6.5625-14.632813-14.632812v-230.21875c0-8.066407 6.566406-14.628907 14.632813-14.628907h422.101562c8.066407 0 14.632813 6.5625 14.632813 14.628907zm0 0" data-original="#000000" class="active-path" data-old_color="#ff0000" fill="#ff0000"/><path d="m379.910156 120.585938h27.371094c8.371094 0 15.160156-6.789063 15.160156-15.160157 0-8.371093-6.789062-15.15625-15.160156-15.15625h-12.210938v-5.894531c0-8.371094-6.789062-15.15625-15.160156-15.15625s-15.160156 6.785156-15.160156 15.15625v8.699219c-15.953125 6.117187-27.3125 21.585937-27.3125 39.667969 0 23.421874 19.050781 42.476562 42.527344 42.476562 6.703125 0 12.15625 5.453125 12.15625 12.15625s-5.453125 12.15625-12.15625 12.15625h-27.371094c-8.371094 0-15.15625 6.785156-15.15625 15.15625s6.785156 15.160156 15.15625 15.160156h9.359375v5.890625c0 8.371094 6.789063 15.160157 15.160156 15.160157 8.371094 0 15.15625-6.789063 15.15625-15.160157v-7.714843c17.4375-5.289063 30.171875-21.507813 30.171875-40.648438 0-23.421875-19.054687-42.476562-42.53125-42.476562-6.703125 0-12.15625-5.453126-12.15625-12.15625 0-6.703126 5.453125-12.15625 12.15625-12.15625zm0 0" data-original="#000000" class="active-path" data-old_color="#ff0000" fill="#ff0000"/><path d="m247.035156 90.269531h-156.046875c-8.371093 0-15.160156 6.785157-15.160156 15.15625 0 8.371094 6.789063 15.160157 15.160156 15.160157h156.046875c8.371094 0 15.15625-6.789063 15.15625-15.160157 0-8.371093-6.785156-15.15625-15.15625-15.15625zm0 0" data-original="#000000" class="active-path" data-old_color="#ff0000" fill="#ff0000"/><path d="m247.035156 144.902344h-156.046875c-8.371093 0-15.160156 6.785156-15.160156 15.15625s6.789063 15.160156 15.160156 15.160156h156.046875c8.371094 0 15.15625-6.789062 15.15625-15.160156s-6.785156-15.15625-15.15625-15.15625zm0 0" data-original="#000000" class="active-path" data-old_color="#ff0000" fill="#ff0000"/><path d="m202.046875 199.53125h-111.058594c-8.371093 0-15.160156 6.785156-15.160156 15.15625 0 8.375 6.789063 15.160156 15.160156 15.160156h111.058594c8.371094 0 15.15625-6.785156 15.15625-15.160156 0-8.371094-6.785156-15.15625-15.15625-15.15625zm0 0" data-original="#000000" class="active-path" data-old_color="#ff0000" fill="#ff0000"/></g> </svg>
