<?xml version="1.0"?>
<svg xmlns="http://www.w3.org/2000/svg" xmlns:xlink="http://www.w3.org/1999/xlink" version="1.1" id="Capa_1" x="0px" y="0px" viewBox="0 0 511.999 511.999" style="enable-background:new 0 0 511.999 511.999;" xml:space="preserve" width="512px" height="512px"><g><g>
	<g>
		<g>
			<path d="M200.774,333.926c-9.983-9.235-23.321-14.894-37.959-14.894c-0.024,0-0.048,0.001-0.073,0.001     c-6.55,0.009-12.969,1.14-19.077,3.364c-0.21,0.076-0.408,0.169-0.61,0.258c-4.781,2.106-7.177,7.582-5.364,12.562     c1.89,5.189,7.63,7.864,12.818,5.974c3.931-1.433,8.071-2.158,12.305-2.158c19.825,0,35.954,16.129,35.954,35.953     c0,19.826-16.129,35.954-35.954,35.954c-16.747,0-31.513-11.847-35.111-28.169c-1.189-5.392-6.522-8.802-11.918-7.612     c-5.394,1.189-8.802,6.525-7.613,11.919c5.604,25.416,28.583,43.862,54.642,43.862c30.853,0,55.954-25.102,55.954-55.954     C218.768,358.772,211.83,344.155,200.774,333.926z" data-original="#000000" class="active-path" data-old_color="#f26722" fill="#f26722"/>
			<path d="M508.912,361.417c-3.942-7.028-10.383-12.097-18.139-14.277c-7.755-2.178-15.894-1.208-22.921,2.736l-36.166,20.308     l-27.364-43c-5.284-8.302-14.313-13.258-24.153-13.258h-0.563v-30.483v-54.251c0-22.558-18.353-40.909-40.909-40.909h-5.124     c-3.445-11.483-14.107-19.877-26.697-19.877H205.486c-12.591,0-23.252,8.394-26.698,19.877h-34.123l-11.305-78.185l-3.513-24.984     c-2.138-15.203-15.327-26.667-30.678-26.667H86.378v-7.507c0-5.522-4.477-10-10-10H27.505C12.339,40.941,0,53.281,0,68.447     c0,15.167,12.339,27.506,27.505,27.506h48.872c5.523,0,10-4.478,10-10v-7.507h12.792c5.441,0,10.116,4.063,10.874,9.452     l1.914,13.613c-7.831,0.018-15.259,3.417-20.389,9.336c-5.143,5.935-7.453,13.796-6.337,21.569l17.807,124.033     c1.9,13.235,13.416,23.217,26.786,23.217h7.186l0.375,2.67c-40.673,11.177-70.643,48.476-70.643,92.65     c0,52.975,43.098,96.072,96.072,96.072c52.974,0,96.072-43.098,96.072-96.072c0-14.682-3.315-28.602-9.229-41.06h86.031h23.919     v47.27c-21.658,3.332-38.295,22.094-38.295,44.668c0,24.921,20.274,45.194,45.194,45.194s45.195-20.274,45.195-45.194     c0-20.366-13.544-37.622-32.095-43.251v-48.686h0.563c2.966,0,5.688,1.494,7.28,3.996l50.676,79.635     c0.463,0.727,1.007,1.372,1.61,1.936c0.015,0.014,0.028,0.031,0.044,0.046c0.136,0.126,0.286,0.231,0.428,0.348     c1.479,1.221,3.258,1.993,5.125,2.226c0.409,0.051,0.822,0.077,1.237,0.077c1.643,0,3.308-0.405,4.84-1.255l48.184-26.704     c5.641-3.127,9.718-8.267,11.479-14.471C512.834,373.557,512.068,367.042,508.912,361.417z M66.378,75.953H27.505     c-4.139,0-7.506-3.367-7.506-7.507c0-4.14,3.367-7.507,7.506-7.507h38.872V75.953z M129.825,259.666     c-3.489,0-6.494-2.604-6.99-6.059l-17.807-124.033c-0.398-2.777,0.865-4.719,1.654-5.629s2.531-2.437,5.336-2.437h2.752     l19.428,138.158H129.825z M197.616,196.276c0-4.34,3.531-7.871,7.872-7.871h101.391c4.34,0,7.871,3.531,7.871,7.871v6.412     H197.616V196.276z M177.799,208.282c1.145,8.127,8.126,14.406,16.564,14.406H318c8.439,0,15.42-6.279,16.565-14.406h4.133     c11.53,0,20.91,9.38,20.91,20.91v19.898c-5.769-3.294-12.437-5.188-19.542-5.188H182.874c-11.146,0-21.223,4.643-28.417,12.088     l-6.899-47.707H177.799z M162.815,451.059c-41.946,0-76.073-34.126-76.073-76.073c0-34.074,22.52-62.988,53.457-72.641     c6.267-1.955,12.884-3.102,19.724-3.359c0.961-0.036,1.922-0.073,2.892-0.073c0.173,0,0.344,0.012,0.517,0.013     c16.768,0.113,32.264,5.67,44.801,15c7.363,5.479,13.691,12.266,18.671,20c7.633,11.854,12.083,25.943,12.083,41.06     C238.888,416.932,204.761,451.059,162.815,451.059z M359.608,313.926h-23.919h-98.755c-17.425-21.115-43.68-34.678-73.055-34.999     c2.046-8.602,9.775-15.026,18.995-15.026h157.192c10.775,0,19.542,8.767,19.542,19.542V313.926z M391.703,425.864     c0,13.893-11.303,25.195-25.196,25.195s-25.195-11.303-25.195-25.195c0-13.892,11.303-25.195,25.195-25.195     C380.4,400.669,391.703,411.971,391.703,425.864z M491.834,374.295c-0.172,0.606-0.652,1.73-1.937,2.442l-39.951,22.142     l-7.506-11.796l35.204-19.768c2.364-1.328,5.105-1.653,7.718-0.922c2.611,0.734,4.78,2.441,6.107,4.807     C492.188,372.481,492.007,373.689,491.834,374.295z" data-original="#000000" class="active-path" data-old_color="#f26722" fill="#f26722"/>
			<path d="M113.618,356.119c0.25,0.61,0.56,1.19,0.92,1.73c0.37,0.55,0.79,1.06,1.25,1.52c0.46,0.46,0.97,0.88,1.52,1.25     c0.54,0.36,1.12,0.67,1.72,0.92c0.61,0.24,1.24,0.44,1.87,0.561c0.65,0.13,1.31,0.2,1.96,0.2s1.31-0.07,1.95-0.2     c0.64-0.12,1.27-0.32,1.87-0.561c0.61-0.25,1.19-0.56,1.73-0.92c0.55-0.37,1.06-0.79,1.52-1.25c0.46-0.46,0.88-0.97,1.24-1.52     c0.36-0.54,0.67-1.12,0.92-1.73c0.25-0.6,0.44-1.229,0.57-1.87c0.13-0.64,0.2-1.3,0.2-1.949c0-0.65-0.07-1.311-0.2-1.95     c-0.13-0.641-0.32-1.271-0.57-1.87c-0.25-0.61-0.56-1.19-0.92-1.73c-0.36-0.55-0.78-1.06-1.24-1.52s-0.97-0.88-1.52-1.24     c-0.54-0.36-1.12-0.67-1.73-0.92c-0.6-0.25-1.23-0.44-1.87-0.57c-1.29-0.26-2.62-0.26-3.91,0c-0.63,0.13-1.26,0.32-1.87,0.57     c-0.6,0.25-1.18,0.56-1.72,0.92c-0.55,0.36-1.06,0.78-1.52,1.24s-0.88,0.97-1.25,1.52c-0.36,0.54-0.67,1.12-0.92,1.73     c-0.25,0.6-0.44,1.229-0.57,1.87c-0.13,0.64-0.19,1.3-0.19,1.95c0,0.649,0.06,1.31,0.19,1.949     C113.178,354.89,113.368,355.52,113.618,356.119z" data-original="#000000" class="active-path" data-old_color="#f26722" fill="#f26722"/>
		</g>
	</g>
</g></g> </svg>
